<svg width="23" height="23" viewBox="0 0 23 23" fill="none" xmlns="http://www.w3.org/2000/svg">
<path fill-rule="evenodd" clip-rule="evenodd" d="M5.5 0.375C2.73858 0.375 0.5 2.61357 0.5 5.375V17.5959C0.5 20.3574 2.73857 22.5959 5.5 22.5959H17.7209C20.4824 22.5959 22.7209 20.3574 22.7209 17.5959V5.375C22.7209 2.61358 20.4824 0.375 17.7209 0.375H5.5ZM18.0555 6.59726C18.9145 6.59726 19.6109 5.90085 19.6109 5.04179C19.6109 4.18273 18.9145 3.48633 18.0555 3.48633C17.1964 3.48633 16.5 4.18273 16.5 5.04179C16.5 5.90085 17.1964 6.59726 18.0555 6.59726ZM15.6109 11.4861C15.6109 9.27709 13.8201 7.48633 11.6111 7.48633C9.40209 7.48633 7.61133 9.27709 7.61133 11.4861C7.61133 13.6951 9.40209 15.4859 11.6111 15.4859C13.8201 15.4859 15.6109 13.6951 15.6109 11.4861ZM11.6114 5.70801C8.42063 5.70801 5.83398 8.29466 5.83398 11.4855C5.83398 14.6762 8.42063 17.2629 11.6114 17.2629C14.8022 17.2629 17.3889 14.6762 17.3889 11.4855C17.3889 8.29466 14.8022 5.70801 11.6114 5.70801Z" fill="#467FF7"/>
</svg>
