<svg width="23" height="23" viewBox="0 0 23 23" fill="none" xmlns="http://www.w3.org/2000/svg">
<path fill-rule="evenodd" clip-rule="evenodd" d="M5 0.375C2.23858 0.375 0 2.61357 0 5.375V17.5959C0 20.3574 2.23857 22.5959 5 22.5959H17.2209C19.9824 22.5959 22.2209 20.3574 22.2209 17.5959V5.375C22.2209 2.61358 19.9824 0.375 17.2209 0.375H5ZM17.5555 6.59726C18.4145 6.59726 19.1109 5.90085 19.1109 5.04179C19.1109 4.18273 18.4145 3.48633 17.5555 3.48633C16.6964 3.48633 16 4.18273 16 5.04179C16 5.90085 16.6964 6.59726 17.5555 6.59726ZM15.1109 11.4861C15.1109 9.27709 13.3201 7.48633 11.1111 7.48633C8.90209 7.48633 7.11133 9.27709 7.11133 11.4861C7.11133 13.6951 8.90209 15.4859 11.1111 15.4859C13.3201 15.4859 15.1109 13.6951 15.1109 11.4861ZM11.1114 5.70801C7.92063 5.70801 5.33398 8.29466 5.33398 11.4855C5.33398 14.6762 7.92063 17.2629 11.1114 17.2629C14.3022 17.2629 16.8889 14.6762 16.8889 11.4855C16.8889 8.29466 14.3022 5.70801 11.1114 5.70801Z" fill="#467FF7"/>
</svg>
