<svg width="27" height="23" viewBox="0 0 27 23" fill="none" xmlns="http://www.w3.org/2000/svg">
<path fill-rule="evenodd" clip-rule="evenodd" d="M27 2.6621C26.0062 3.11385 24.94 3.42022 23.8196 3.557C24.9636 2.85424 25.8392 1.73955 26.2542 0.415404C25.1812 1.06621 23.9968 1.53878 22.7347 1.79495C21.7241 0.688915 20.2866 0 18.6922 0C15.6334 0 13.1532 2.54443 13.1532 5.68082C13.1532 6.12564 13.2021 6.5601 13.2966 6.97555C8.69401 6.73838 4.61273 4.47611 1.88118 1.03851C1.40369 1.87629 1.13206 2.85247 1.13206 3.89451C1.13206 5.86602 2.11064 7.60558 3.59537 8.62331C2.68765 8.59217 1.83393 8.336 1.08653 7.91018V7.98115C1.08653 10.7333 2.99643 13.0302 5.52888 13.5529C5.06489 13.681 4.57562 13.752 4.06946 13.752C3.7118 13.752 3.36592 13.7156 3.02678 13.6464C3.73201 15.9052 5.77691 17.5478 8.19972 17.5929C6.305 19.1161 3.91593 20.0213 1.32106 20.0213C0.873972 20.0213 0.433589 19.9936 0 19.9434C2.45149 21.5584 5.36189 22.5 8.48993 22.5C18.6788 22.5 24.2482 13.842 24.2482 6.33339L24.2297 5.59776C25.3179 4.80149 26.2593 3.80105 27 2.6621Z" fill="#467FF7"/>
</svg>
