<svg width="28" height="23" viewBox="0 0 28 23" fill="none" xmlns="http://www.w3.org/2000/svg">
<path fill-rule="evenodd" clip-rule="evenodd" d="M27.5 2.6621C26.5062 3.11385 25.44 3.42022 24.3196 3.557C25.4636 2.85424 26.3392 1.73955 26.7542 0.415404C25.6812 1.06621 24.4968 1.53878 23.2347 1.79495C22.2241 0.688915 20.7866 0 19.1922 0C16.1334 0 13.6532 2.54443 13.6532 5.68082C13.6532 6.12564 13.7021 6.5601 13.7966 6.97555C9.19401 6.73838 5.11273 4.47611 2.38118 1.03851C1.90369 1.87629 1.63206 2.85247 1.63206 3.89451C1.63206 5.86602 2.61064 7.60558 4.09537 8.62331C3.18765 8.59217 2.33393 8.336 1.58653 7.91018V7.98115C1.58653 10.7333 3.49643 13.0302 6.02888 13.5529C5.56489 13.681 5.07562 13.752 4.56946 13.752C4.2118 13.752 3.86592 13.7156 3.52678 13.6464C4.23201 15.9052 6.27691 17.5478 8.69972 17.5929C6.805 19.1161 4.41593 20.0213 1.82106 20.0213C1.37397 20.0213 0.933589 19.9936 0.5 19.9434C2.95149 21.5584 5.86189 22.5 8.98993 22.5C19.1788 22.5 24.7482 13.842 24.7482 6.33339L24.7297 5.59776C25.8179 4.80149 26.7593 3.80105 27.5 2.6621Z" fill="#467FF7"/>
</svg>
