<svg width="42" height="41" viewBox="0 0 42 41" fill="none" xmlns="http://www.w3.org/2000/svg">
<path fill-rule="evenodd" clip-rule="evenodd" d="M38.8392 2.86958H3.03558V31.0562L14.5972 17.0421L27.822 31.9603L33.7036 25.993L38.8392 31.8548V2.86958ZM3.03558 0.631851C1.79972 0.631851 0.797852 1.63372 0.797852 2.86958V38.6732C0.797852 39.9091 1.79972 40.9109 3.03558 40.9109H38.8392C40.0751 40.9109 41.0769 39.9091 41.0769 38.6732V2.86958C41.0769 1.63372 40.0751 0.631851 38.8392 0.631851H3.03558ZM28.396 17.7869C30.8678 17.7869 32.8715 15.7831 32.8715 13.3114C32.8715 10.8397 30.8678 8.83596 28.396 8.83596C25.9243 8.83596 23.9206 10.8397 23.9206 13.3114C23.9206 15.7831 25.9243 17.7869 28.396 17.7869Z" fill="#C8D5DC"/>
</svg>
