<svg width="54" height="53" viewBox="0 0 54 53" fill="none" xmlns="http://www.w3.org/2000/svg">
<path fill-rule="evenodd" clip-rule="evenodd" d="M50.3 2.92883H3.70515V39.821L18.7525 21.4775L35.9633 41.0031L43.6176 33.1929L50.3 40.8638V2.92883ZM3.70515 0C2.0968 0 0.792969 1.31128 0.792969 2.92883V49.7902C0.792969 51.4077 2.0968 52.719 3.70515 52.719H50.3C51.9084 52.719 53.2122 51.4077 53.2122 49.7902V2.92883C53.2122 1.31128 51.9084 0 50.3 0H3.70515ZM36.7042 22.4536C39.9209 22.4536 42.5286 19.831 42.5286 16.5959C42.5286 13.3608 39.9209 10.7383 36.7042 10.7383C33.4875 10.7383 30.8798 13.3608 30.8798 16.5959C30.8798 19.831 33.4875 22.4536 36.7042 22.4536Z" fill="#C8D5DC"/>
</svg>
