<svg width="28" height="28" viewBox="0 0 28 28" fill="none" xmlns="http://www.w3.org/2000/svg">
<path fill-rule="evenodd" clip-rule="evenodd" d="M25.8394 1.93816H1.93816V20.7544L9.65643 11.3989L18.4849 21.3578L22.4112 17.3742L25.8394 21.2872V1.93816ZM1.93816 0.444336C1.11315 0.444336 0.444336 1.11315 0.444336 1.93816V25.8394C0.444336 26.6644 1.11315 27.3332 1.93816 27.3332H25.8394C26.6644 27.3332 27.3332 26.6644 27.3332 25.8394V1.93816C27.3332 1.11315 26.6644 0.444336 25.8394 0.444336H1.93816ZM18.8685 11.897C20.5186 11.897 21.8562 10.5594 21.8562 8.90934C21.8562 7.2593 20.5186 5.92169 18.8685 5.92169C17.2185 5.92169 15.8809 7.2593 15.8809 8.90934C15.8809 10.5594 17.2185 11.897 18.8685 11.897Z" fill="#CAD5DC"/>
</svg>
