<svg width="31" height="32" viewBox="0 0 31 32" fill="none" xmlns="http://www.w3.org/2000/svg">
<path fill-rule="evenodd" clip-rule="evenodd" d="M29.1549 2.6565H2.44974V23.6797L11.0732 13.227L20.9374 24.3541L25.3243 19.9033L29.1549 24.2756V2.6565ZM2.44974 0.987427C1.52794 0.987427 0.78067 1.7347 0.78067 2.6565V29.3617C0.78067 30.2835 1.52794 31.0307 2.44974 31.0307H29.1549C30.0767 31.0307 30.824 30.2835 30.824 29.3617V2.6565C30.824 1.7347 30.0767 0.987427 29.1549 0.987427H2.44974ZM21.3655 13.7835C23.2091 13.7835 24.7037 12.289 24.7037 10.4454C24.7037 8.60177 23.2091 7.10723 21.3655 7.10723C19.5219 7.10723 18.0274 8.60177 18.0274 10.4454C18.0274 12.289 19.5219 13.7835 21.3655 13.7835Z" fill="#C8D5DC"/>
</svg>
