<svg width="28" height="27" viewBox="0 0 28 27" fill="none" xmlns="http://www.w3.org/2000/svg">
<path fill-rule="evenodd" clip-rule="evenodd" d="M25.5646 1.52605H1.66338V20.3423L9.38165 10.9868L18.2101 20.9457L22.1364 16.9621L25.5646 20.8751V1.52605ZM1.66338 0.0322266C0.838365 0.0322266 0.169556 0.701037 0.169556 1.52605V25.4273C0.169556 26.2523 0.838366 26.9211 1.66338 26.9211H25.5646C26.3896 26.9211 27.0584 26.2523 27.0584 25.4273V1.52605C27.0584 0.701036 26.3896 0.0322266 25.5646 0.0322266H1.66338ZM18.5937 11.4849C20.2438 11.4849 21.5814 10.1473 21.5814 8.49723C21.5814 6.84719 20.2438 5.50958 18.5937 5.50958C16.9437 5.50958 15.6061 6.84719 15.6061 8.49723C15.6061 10.1473 16.9437 11.4849 18.5937 11.4849Z" fill="#CAD5DC"/>
</svg>
