<svg width="58" height="58" viewBox="0 0 58 58" fill="none" xmlns="http://www.w3.org/2000/svg">
<path fill-rule="evenodd" clip-rule="evenodd" d="M54.7778 3.22222H3.22222V43.8089L19.8699 23.6299L38.9131 45.1114L47.3822 36.5188L54.7778 44.96V3.22222ZM3.22222 0C1.44264 0 0 1.44264 0 3.22222V54.7778C0 56.5574 1.44264 58 3.22222 58H54.7778C56.5574 58 58 56.5574 58 54.7778V3.22222C58 1.44264 56.5574 0 54.7778 0H3.22222ZM39.7404 24.7033C43.2996 24.7033 46.1848 21.8181 46.1848 18.2589C46.1848 14.6997 43.2996 11.8145 39.7404 11.8145C36.1812 11.8145 33.296 14.6997 33.296 18.2589C33.296 21.8181 36.1812 24.7033 39.7404 24.7033Z" fill="#C8D5DC"/>
</svg>
