<svg width="30" height="29" viewBox="0 0 30 29" fill="none" xmlns="http://www.w3.org/2000/svg">
<path fill-rule="evenodd" clip-rule="evenodd" d="M27.5562 1.64518H2.36611V21.475L10.5004 11.6152L19.805 22.111L23.943 17.9127L27.5562 22.0368V1.64518ZM2.36611 0.0708008C1.49661 0.0708008 0.791733 0.775674 0.791733 1.64518V26.8352C0.791733 27.7047 1.49661 28.4096 2.36611 28.4096H27.5562C28.4257 28.4096 29.1305 27.7047 29.1305 26.8352V1.64518C29.1305 0.775674 28.4257 0.0708008 27.5562 0.0708008H2.36611ZM20.2089 12.1413C21.948 12.1413 23.3577 10.7316 23.3577 8.99259C23.3577 7.25358 21.948 5.84383 20.2089 5.84383C18.4699 5.84383 17.0602 7.25358 17.0602 8.99259C17.0602 10.7316 18.4699 12.1413 20.2089 12.1413Z" fill="#C8D5DC"/>
</svg>
