<svg width="41" height="41" viewBox="0 0 41 41" fill="none" xmlns="http://www.w3.org/2000/svg">
<path fill-rule="evenodd" clip-rule="evenodd" d="M38.6829 2.23773H2.87924V30.4243L14.4408 16.4103L27.6657 31.3284L33.5472 25.3612L38.6829 31.223V2.23773ZM2.87924 0C1.64337 0 0.64151 1.00187 0.64151 2.23773V38.0414C0.64151 39.2772 1.64338 40.2791 2.87924 40.2791H38.6829C39.9187 40.2791 40.9206 39.2772 40.9206 38.0414V2.23773C40.9206 1.00186 39.9187 0 38.6829 0H2.87924ZM28.2397 17.155C30.7114 17.155 32.7152 15.1513 32.7152 12.6796C32.7152 10.2078 30.7114 8.2041 28.2397 8.2041C25.768 8.2041 23.7643 10.2078 23.7643 12.6796C23.7643 15.1513 25.768 17.155 28.2397 17.155Z" fill="#C8D5DC"/>
</svg>
