<svg width="23" height="23" viewBox="0 0 23 23" fill="none" xmlns="http://www.w3.org/2000/svg">
<path d="M0.9375 0.25C0.688859 0.25 0.450403 0.348772 0.274588 0.524588C0.0987722 0.700403 0 0.93886 0 1.1875C0 1.43614 0.0987722 1.6746 0.274588 1.85041C0.450403 2.02623 0.688859 2.125 0.9375 2.125H1.39875C1.60232 2.12535 1.80025 2.19196 1.96261 2.31475C2.12498 2.43754 2.24297 2.60984 2.29875 2.80562L5.2725 13.2119C5.44069 13.7991 5.79551 14.3157 6.28332 14.6834C6.77112 15.0511 7.36538 15.25 7.97625 15.25H16.5431C17.1053 15.2501 17.6547 15.0817 18.1202 14.7665C18.5858 14.4514 18.9462 14.0039 19.155 13.4819L21.9187 6.57062C22.0324 6.28624 22.0746 5.97835 22.0417 5.67387C22.0089 5.36939 21.902 5.07759 21.7303 4.82399C21.5586 4.57038 21.3275 4.36267 21.057 4.21904C20.7865 4.0754 20.485 4.00019 20.1787 4H4.59L4.10062 2.29C3.93286 1.7027 3.57847 1.18597 3.09101 0.817931C2.60356 0.449888 2.00954 0.250533 1.39875 0.25H0.9375ZM8.4375 22.75C8.80684 22.75 9.17257 22.6773 9.5138 22.5359C9.85502 22.3946 10.1651 22.1874 10.4262 21.9262C10.6874 21.6651 10.8946 21.355 11.0359 21.0138C11.1773 20.6726 11.25 20.3068 11.25 19.9375C11.25 19.5682 11.1773 19.2024 11.0359 18.8612C10.8946 18.52 10.6874 18.2099 10.4262 17.9488C10.1651 17.6876 9.85502 17.4804 9.5138 17.3391C9.17257 17.1977 8.80684 17.125 8.4375 17.125C7.69158 17.125 6.97621 17.4213 6.44876 17.9488C5.92132 18.4762 5.625 19.1916 5.625 19.9375C5.625 20.6834 5.92132 21.3988 6.44876 21.9262C6.97621 22.4537 7.69158 22.75 8.4375 22.75ZM15.9375 22.75C16.3068 22.75 16.6726 22.6773 17.0138 22.5359C17.355 22.3946 17.6651 22.1874 17.9262 21.9262C18.1874 21.6651 18.3946 21.355 18.5359 21.0138C18.6773 20.6726 18.75 20.3068 18.75 19.9375C18.75 19.5682 18.6773 19.2024 18.5359 18.8612C18.3946 18.52 18.1874 18.2099 17.9262 17.9488C17.6651 17.6876 17.355 17.4804 17.0138 17.3391C16.6726 17.1977 16.3068 17.125 15.9375 17.125C15.1916 17.125 14.4762 17.4213 13.9488 17.9488C13.4213 18.4762 13.125 19.1916 13.125 19.9375C13.125 20.6834 13.4213 21.3988 13.9488 21.9262C14.4762 22.4537 15.1916 22.75 15.9375 22.75Z" fill="black"/>
</svg>
